<svg width="68" height="68" viewBox="0 0 68 68" fill="none" xmlns="http://www.w3.org/2000/svg">
<g filter="url(#filter0_d_26_6)">
<circle cx="34" cy="34" r="30" fill="#F5F5F5"/>
</g>
<g filter="url(#filter1_d_26_6)">
<path d="M16.616 44.324C15.56 44.324 14.744 44.036 14.168 43.46C13.592 42.86 13.304 42.032 13.304 40.976V21.968C13.304 20.888 13.592 20.06 14.168 19.484C14.768 18.908 15.596 18.62 16.652 18.62H25.508C28.388 18.62 30.608 19.328 32.168 20.744C33.752 22.136 34.544 24.08 34.544 26.576C34.544 28.184 34.184 29.588 33.464 30.788C32.768 31.964 31.748 32.876 30.404 33.524C29.084 34.148 27.452 34.46 25.508 34.46L25.796 33.812H27.524C28.556 33.812 29.468 34.064 30.26 34.568C31.052 35.048 31.712 35.792 32.24 36.8L34.04 40.04C34.424 40.736 34.604 41.42 34.58 42.092C34.556 42.74 34.292 43.28 33.788 43.712C33.308 44.12 32.6 44.324 31.664 44.324C30.728 44.324 29.96 44.132 29.36 43.748C28.784 43.364 28.268 42.764 27.812 41.948L24.536 35.936C24.248 35.408 23.876 35.048 23.42 34.856C22.988 34.64 22.484 34.532 21.908 34.532H19.928V40.976C19.928 42.032 19.652 42.86 19.1 43.46C18.548 44.036 17.72 44.324 16.616 44.324ZM19.928 29.852H24.32C25.592 29.852 26.564 29.6 27.236 29.096C27.908 28.592 28.244 27.812 28.244 26.756C28.244 25.748 27.908 24.992 27.236 24.488C26.564 23.96 25.592 23.696 24.32 23.696H19.928V29.852Z" fill="black"/>
<path d="M14.168 43.46L13.4466 44.1525L13.4537 44.1599L13.4609 44.1671L14.168 43.46ZM14.168 19.484L13.4755 18.7626L13.4681 18.7697L13.4609 18.7769L14.168 19.484ZM32.168 20.744L31.4959 21.4845L31.5018 21.4899L31.5079 21.4952L32.168 20.744ZM33.464 30.788L32.6065 30.2735L32.6034 30.2787L33.464 30.788ZM30.404 33.524L30.8314 34.4281L30.8383 34.4248L30.404 33.524ZM25.508 34.46L24.5942 34.0539L23.9692 35.46H25.508V34.46ZM25.796 33.812V32.812H25.1461L24.8822 33.4059L25.796 33.812ZM30.26 34.568L29.7231 35.4117L29.7323 35.4175L29.7417 35.4232L30.26 34.568ZM32.24 36.8L31.3542 37.264L31.3599 37.2749L31.3658 37.2856L32.24 36.8ZM34.04 40.04L34.9156 39.5569L34.9142 39.5544L34.04 40.04ZM34.58 42.092L35.5793 42.129L35.5794 42.1277L34.58 42.092ZM33.788 43.712L34.4357 44.4739L34.4388 44.4713L33.788 43.712ZM29.36 43.748L28.8053 44.5801L28.8131 44.5852L28.8209 44.5903L29.36 43.748ZM27.812 41.948L26.9339 42.4265L26.9391 42.4358L27.812 41.948ZM24.536 35.936L25.4141 35.4575L25.4139 35.4571L24.536 35.936ZM23.42 34.856L22.9728 35.7504L23.0019 35.765L23.0319 35.7776L23.42 34.856ZM19.928 34.532V33.532H18.928V34.532H19.928ZM19.1 43.46L19.822 44.1519L19.829 44.1446L19.8359 44.1371L19.1 43.46ZM19.928 29.852H18.928V30.852H19.928V29.852ZM27.236 29.096L26.636 28.296L26.636 28.296L27.236 29.096ZM27.236 24.488L26.6182 25.2743L26.627 25.2813L26.636 25.288L27.236 24.488ZM19.928 23.696V22.696H18.928V23.696H19.928ZM16.616 43.324C15.7432 43.324 15.2126 43.0904 14.8751 42.7529L13.4609 44.1671C14.2754 44.9816 15.3768 45.324 16.616 45.324V43.324ZM14.8894 42.7675C14.5369 42.4003 14.304 41.8465 14.304 40.976H12.304C12.304 42.2175 12.6471 43.3197 13.4466 44.1525L14.8894 42.7675ZM14.304 40.976V21.968H12.304V40.976H14.304ZM14.304 21.968C14.304 21.0638 14.5416 20.5246 14.8751 20.1911L13.4609 18.7769C12.6424 19.5954 12.304 20.7122 12.304 21.968H14.304ZM14.8605 20.2054C15.2277 19.8529 15.7815 19.62 16.652 19.62V17.62C15.4105 17.62 14.3083 17.9631 13.4755 18.7626L14.8605 20.2054ZM16.652 19.62H25.508V17.62H16.652V19.62ZM25.508 19.62C28.2315 19.62 30.1783 20.2884 31.4959 21.4845L32.8401 20.0035C31.0377 18.3676 28.5445 17.62 25.508 17.62V19.62ZM31.5079 21.4952C32.8358 22.6621 33.544 24.3096 33.544 26.576H35.544C35.544 23.8504 34.6682 21.6099 32.8281 19.9928L31.5079 21.4952ZM33.544 26.576C33.544 28.0302 33.2201 29.2509 32.6065 30.2735L34.3215 31.3025C35.1479 29.9251 35.544 28.3377 35.544 26.576H33.544ZM32.6034 30.2787C32.017 31.2695 31.1532 32.0526 29.9697 32.6232L30.8383 34.4248C32.3428 33.6994 33.519 32.6585 34.3246 31.2973L32.6034 30.2787ZM29.9766 32.6199C28.8268 33.1635 27.3509 33.46 25.508 33.46V35.46C27.5531 35.46 29.3412 35.1325 30.8314 34.4281L29.9766 32.6199ZM26.4218 34.8661L26.7098 34.2181L24.8822 33.4059L24.5942 34.0539L26.4218 34.8661ZM25.796 34.812H27.524V32.812H25.796V34.812ZM27.524 34.812C28.3854 34.812 29.1073 35.0198 29.7231 35.4117L30.7969 33.7243C29.8287 33.1082 28.7266 32.812 27.524 32.812V34.812ZM29.7417 35.4232C30.3457 35.7893 30.8914 36.3806 31.3542 37.264L33.1258 36.336C32.5326 35.2034 31.7583 34.3067 30.7783 33.7128L29.7417 35.4232ZM31.3658 37.2856L33.1658 40.5256L34.9142 39.5544L33.1142 36.3144L31.3658 37.2856ZM33.1644 40.5231C33.477 41.0897 33.5971 41.5958 33.5806 42.0563L35.5794 42.1277C35.6109 41.2442 35.371 40.3823 34.9156 39.5569L33.1644 40.5231ZM33.5807 42.055C33.5673 42.4168 33.4351 42.6974 33.1372 42.9527L34.4388 44.4713C35.1489 43.8626 35.5447 43.0632 35.5793 42.129L33.5807 42.055ZM33.1404 42.9501C32.9111 43.1449 32.4744 43.324 31.664 43.324V45.324C32.7256 45.324 33.7049 45.0951 34.4356 44.4739L33.1404 42.9501ZM31.664 43.324C30.8602 43.324 30.2949 43.159 29.8991 42.9057L28.8209 44.5903C29.6251 45.105 30.5958 45.324 31.664 45.324V43.324ZM29.9147 42.9159C29.5085 42.6451 29.0895 42.184 28.6849 41.4602L26.9391 42.4358C27.4465 43.344 28.0595 44.0829 28.8053 44.5801L29.9147 42.9159ZM28.6901 41.4695L25.4141 35.4575L23.6579 36.4145L26.9339 42.4265L28.6901 41.4695ZM25.4139 35.4571C25.0416 34.7746 24.5149 34.232 23.8081 33.9344L23.0319 35.7776C23.2371 35.864 23.4544 36.0414 23.6581 36.4149L25.4139 35.4571ZM23.8672 33.9616C23.2721 33.664 22.6096 33.532 21.908 33.532V35.532C22.3584 35.532 22.7039 35.616 22.9728 35.7504L23.8672 33.9616ZM21.908 33.532H19.928V35.532H21.908V33.532ZM18.928 34.532V40.976H20.928V34.532H18.928ZM18.928 40.976C18.928 41.8575 18.7008 42.4169 18.3641 42.7829L19.8359 44.1371C20.6032 43.3031 20.928 42.2065 20.928 40.976H18.928ZM18.378 42.7681C18.0778 43.0813 17.5548 43.324 16.616 43.324V45.324C17.8852 45.324 19.0182 44.9907 19.822 44.1519L18.378 42.7681ZM19.928 30.852H24.32V28.852H19.928V30.852ZM24.32 30.852C25.703 30.852 26.9222 30.5813 27.836 29.896L26.636 28.296C26.2058 28.6187 25.481 28.852 24.32 28.852V30.852ZM27.836 29.896C28.8238 29.1552 29.244 28.0372 29.244 26.756H27.244C27.244 27.5868 26.9922 28.0288 26.636 28.296L27.836 29.896ZM29.244 26.756C29.244 25.504 28.8115 24.4196 27.836 23.688L26.636 25.288C27.0045 25.5644 27.244 25.992 27.244 26.756H29.244ZM27.8538 23.7017C26.9379 22.982 25.7111 22.696 24.32 22.696V24.696C25.4729 24.696 26.1901 24.938 26.6182 25.2743L27.8538 23.7017ZM24.32 22.696H19.928V24.696H24.32V22.696ZM18.928 23.696V29.852H20.928V23.696H18.928Z" fill="#23ABAF"/>
</g>
<g filter="url(#filter2_d_26_6)">
<path d="M50.848 53.732C50.32 53.732 49.912 53.588 49.624 53.3C49.36 53.012 49.228 52.604 49.228 52.076V43.004H49.624C49.24 44.3 48.484 45.344 47.356 46.136C46.228 46.928 44.884 47.324 43.324 47.324C41.764 47.324 40.396 46.964 39.22 46.244C38.068 45.5 37.168 44.444 36.52 43.076C35.896 41.684 35.584 40.064 35.584 38.216C35.584 36.344 35.908 34.736 36.556 33.392C37.204 32.024 38.104 30.98 39.256 30.26C40.432 29.516 41.788 29.144 43.324 29.144C44.884 29.144 46.228 29.54 47.356 30.332C48.508 31.124 49.264 32.18 49.624 33.5L49.228 34.148V30.872C49.228 30.32 49.372 29.912 49.66 29.648C49.948 29.36 50.344 29.216 50.848 29.216C51.376 29.216 51.784 29.36 52.072 29.648C52.36 29.912 52.504 30.32 52.504 30.872V52.076C52.504 52.604 52.36 53.012 52.072 53.3C51.784 53.588 51.376 53.732 50.848 53.732ZM44.08 44.732C45.136 44.732 46.048 44.48 46.816 43.976C47.608 43.472 48.208 42.74 48.616 41.78C49.048 40.82 49.264 39.632 49.264 38.216C49.264 36.104 48.796 34.496 47.86 33.392C46.924 32.288 45.664 31.736 44.08 31.736C43.048 31.736 42.136 31.988 41.344 32.492C40.576 32.972 39.976 33.692 39.544 34.652C39.112 35.612 38.896 36.8 38.896 38.216C38.896 40.328 39.364 41.948 40.3 43.076C41.26 44.18 42.52 44.732 44.08 44.732Z" fill="black"/>
<path d="M49.624 53.3L48.8868 53.9757L48.9015 53.9917L48.9169 54.0071L49.624 53.3ZM49.228 43.004V42.004H48.228V43.004H49.228ZM49.624 43.004L50.5828 43.2881L50.9633 42.004H49.624V43.004ZM47.356 46.136L47.9306 46.9544L47.9306 46.9544L47.356 46.136ZM39.22 46.244L38.6775 47.084L38.6876 47.0906L38.6978 47.0969L39.22 46.244ZM36.52 43.076L35.6075 43.4851L35.6118 43.4946L35.6163 43.5041L36.52 43.076ZM36.556 33.392L37.4568 33.8263L37.4597 33.8201L36.556 33.392ZM39.256 30.26L39.786 31.108L39.7906 31.1051L39.256 30.26ZM47.356 30.332L46.7813 31.1505L46.7895 31.156L47.356 30.332ZM49.624 33.5L50.4773 34.0214L50.7023 33.6532L50.5888 33.2369L49.624 33.5ZM49.228 34.148H48.228V37.7021L50.0813 34.6694L49.228 34.148ZM49.66 29.648L50.3357 30.3852L50.3517 30.3705L50.3671 30.3551L49.66 29.648ZM52.072 29.648L51.3649 30.3551L51.3803 30.3705L51.3963 30.3852L52.072 29.648ZM52.072 53.3L52.7791 54.0071L52.7791 54.0071L52.072 53.3ZM46.816 43.976L46.2791 43.1323L46.2673 43.14L46.816 43.976ZM48.616 41.78L47.7041 41.3696L47.6998 41.3792L47.6957 41.3889L48.616 41.78ZM41.344 32.492L41.874 33.34L41.8809 33.3357L41.344 32.492ZM39.544 34.652L40.4559 35.0624L40.4559 35.0624L39.544 34.652ZM40.3 43.076L39.5304 43.7146L39.5378 43.7235L39.5454 43.7322L40.3 43.076ZM50.848 52.732C50.5032 52.732 50.3806 52.6424 50.3311 52.5929L48.9169 54.0071C49.4434 54.5336 50.1368 54.732 50.848 54.732V52.732ZM50.3612 52.6243C50.3181 52.5773 50.228 52.443 50.228 52.076H48.228C48.228 52.765 48.4019 53.4467 48.8868 53.9757L50.3612 52.6243ZM50.228 52.076V43.004H48.228V52.076H50.228ZM49.228 44.004H49.624V42.004H49.228V44.004ZM48.6652 42.7199C48.3467 43.795 47.7286 44.6525 46.7814 45.3176L47.9306 46.9544C49.2394 46.0355 50.1333 44.805 50.5828 43.2881L48.6652 42.7199ZM46.7814 45.3176C45.8434 45.9762 44.7065 46.324 43.324 46.324V48.324C45.0615 48.324 46.6126 47.8798 47.9306 46.9544L46.7814 45.3176ZM43.324 46.324C41.9235 46.324 40.7411 46.0028 39.7422 45.3911L38.6978 47.0969C40.0509 47.9252 41.6045 48.324 43.324 48.324V46.324ZM39.7625 45.404C38.7829 44.7713 38.0006 43.8657 37.4237 42.6479L35.6163 43.5041C36.3354 45.0223 37.3531 46.2287 38.6775 47.084L39.7625 45.404ZM37.4325 42.6669C36.877 41.4278 36.584 39.9522 36.584 38.216H34.584C34.584 40.1758 34.915 41.9402 35.6075 43.4851L37.4325 42.6669ZM36.584 38.216C36.584 36.4571 36.8885 35.0048 37.4568 33.8263L35.6552 32.9577C34.9275 34.4671 34.584 36.2309 34.584 38.216H36.584ZM37.4597 33.8201C38.0355 32.6045 38.8143 31.7153 39.786 31.108L38.726 29.412C37.3937 30.2447 36.3725 31.4435 35.6523 32.9639L37.4597 33.8201ZM39.7906 31.1051C40.7903 30.4726 41.957 30.144 43.324 30.144V28.144C41.619 28.144 40.0737 28.5594 38.7214 29.4149L39.7906 31.1051ZM43.324 30.144C44.7065 30.144 45.8434 30.4918 46.7814 31.1504L47.9306 29.5136C46.6126 28.5882 45.0615 28.144 43.324 28.144V30.144ZM46.7895 31.156C47.7512 31.8172 48.3629 32.6767 48.6592 33.7631L50.5888 33.2369C50.1651 31.6833 49.2648 30.4308 47.9225 29.508L46.7895 31.156ZM48.7707 32.9785L48.3747 33.6265L50.0813 34.6694L50.4773 34.0214L48.7707 32.9785ZM50.228 34.148V30.872H48.228V34.148H50.228ZM50.228 30.872C50.228 30.4816 50.3281 30.3922 50.3357 30.3852L48.9843 28.9108C48.4159 29.4318 48.228 30.1584 48.228 30.872H50.228ZM50.3671 30.3551C50.4251 30.2971 50.5425 30.216 50.848 30.216V28.216C50.1455 28.216 49.4709 28.4229 48.9529 28.9409L50.3671 30.3551ZM50.848 30.216C51.1928 30.216 51.3154 30.3056 51.3649 30.3551L52.7791 28.9409C52.2526 28.4144 51.5592 28.216 50.848 28.216V30.216ZM51.3963 30.3852C51.4039 30.3922 51.504 30.4816 51.504 30.872H53.504C53.504 30.1584 53.3161 29.4318 52.7477 28.9108L51.3963 30.3852ZM51.504 30.872V52.076H53.504V30.872H51.504ZM51.504 52.076C51.504 52.4208 51.4144 52.5434 51.3649 52.5929L52.7791 54.0071C53.3056 53.4806 53.504 52.7872 53.504 52.076H51.504ZM51.3649 52.5929C51.3154 52.6424 51.1928 52.732 50.848 52.732V54.732C51.5592 54.732 52.2526 54.5336 52.7791 54.0071L51.3649 52.5929ZM44.08 45.732C45.301 45.732 46.4103 45.4383 47.3647 44.812L46.2673 43.14C45.6857 43.5217 44.971 43.732 44.08 43.732V45.732ZM47.3529 44.8197C48.3343 44.1951 49.0584 43.2957 49.5363 42.1711L47.6957 41.3889C47.3576 42.1843 46.8817 42.7489 46.2791 43.1323L47.3529 44.8197ZM49.5279 42.1904C50.0343 41.065 50.264 39.7273 50.264 38.216H48.264C48.264 39.5367 48.0617 40.575 47.7041 41.3696L49.5279 42.1904ZM50.264 38.216C50.264 35.9733 49.7688 34.0971 48.6228 32.7453L47.0972 34.0387C47.8232 34.8949 48.264 36.2347 48.264 38.216H50.264ZM48.6228 32.7453C47.4774 31.3943 45.9265 30.736 44.08 30.736V32.736C45.4016 32.736 46.3706 33.1817 47.0972 34.0387L48.6228 32.7453ZM44.08 30.736C42.8774 30.736 41.7753 31.0322 40.8071 31.6483L41.8809 33.3357C42.4967 32.9438 43.2186 32.736 44.08 32.736V30.736ZM40.814 31.644C39.8523 32.2451 39.1318 33.1312 38.6321 34.2416L40.4559 35.0624C40.8202 34.2528 41.2997 33.6989 41.874 33.34L40.814 31.644ZM38.6321 34.2416C38.1257 35.367 37.896 36.7047 37.896 38.216H39.896C39.896 36.8953 40.0983 35.857 40.4559 35.0624L38.6321 34.2416ZM37.896 38.216C37.896 40.4607 38.3919 42.3425 39.5304 43.7146L41.0696 42.4374C40.3361 41.5535 39.896 40.1953 39.896 38.216H37.896ZM39.5454 43.7322C40.7091 45.0705 42.2523 45.732 44.08 45.732V43.732C42.7877 43.732 41.8109 43.2895 41.0546 42.4198L39.5454 43.7322Z" fill="#23ABAF"/>
</g>
<defs>
<filter id="filter0_d_26_6" x="0" y="0" width="68" height="68" filterUnits="userSpaceOnUse" color-interpolation-filters="sRGB">
<feFlood flood-opacity="0" result="BackgroundImageFix"/>
<feColorMatrix in="SourceAlpha" type="matrix" values="0 0 0 0 0 0 0 0 0 0 0 0 0 0 0 0 0 0 127 0" result="hardAlpha"/>
<feOffset/>
<feGaussianBlur stdDeviation="2"/>
<feComposite in2="hardAlpha" operator="out"/>
<feColorMatrix type="matrix" values="0 0 0 0 0.180392 0 0 0 0 0.219608 0 0 0 0 0.180392 0 0 0 1 0"/>
<feBlend mode="normal" in2="BackgroundImageFix" result="effect1_dropShadow_26_6"/>
<feBlend mode="normal" in="SourceGraphic" in2="effect1_dropShadow_26_6" result="shape"/>
</filter>
<filter id="filter1_d_26_6" x="9.30402" y="14.62" width="29.312" height="33.704" filterUnits="userSpaceOnUse" color-interpolation-filters="sRGB">
<feFlood flood-opacity="0" result="BackgroundImageFix"/>
<feColorMatrix in="SourceAlpha" type="matrix" values="0 0 0 0 0 0 0 0 0 0 0 0 0 0 0 0 0 0 127 0" result="hardAlpha"/>
<feOffset/>
<feGaussianBlur stdDeviation="2"/>
<feComposite in2="hardAlpha" operator="out"/>
<feColorMatrix type="matrix" values="0 0 0 0 0.137255 0 0 0 0 0.670588 0 0 0 0 0.686275 0 0 0 1 0"/>
<feBlend mode="normal" in2="BackgroundImageFix" result="effect1_dropShadow_26_6"/>
<feBlend mode="normal" in="SourceGraphic" in2="effect1_dropShadow_26_6" result="shape"/>
</filter>
<filter id="filter2_d_26_6" x="31.584" y="25.144" width="24.92" height="32.588" filterUnits="userSpaceOnUse" color-interpolation-filters="sRGB">
<feFlood flood-opacity="0" result="BackgroundImageFix"/>
<feColorMatrix in="SourceAlpha" type="matrix" values="0 0 0 0 0 0 0 0 0 0 0 0 0 0 0 0 0 0 127 0" result="hardAlpha"/>
<feOffset/>
<feGaussianBlur stdDeviation="2"/>
<feComposite in2="hardAlpha" operator="out"/>
<feColorMatrix type="matrix" values="0 0 0 0 0.137255 0 0 0 0 0.670588 0 0 0 0 0.686275 0 0 0 1 0"/>
<feBlend mode="normal" in2="BackgroundImageFix" result="effect1_dropShadow_26_6"/>
<feBlend mode="normal" in="SourceGraphic" in2="effect1_dropShadow_26_6" result="shape"/>
</filter>
</defs>
</svg>
